<svg xmlns="http://www.w3.org/2000/svg" viewBox="0 0 280 120" width="280" height="120">
  <!-- Trailer -->
  <rect x="30" y="25" width="160" height="50" rx="5" fill="#f39c12" stroke="#e67e22" stroke-width="2"/>
  
  <!-- Truck cabin -->
  <rect x="200" y="35" width="60" height="40" rx="5" fill="#e74c3c" stroke="#c0392b" stroke-width="2"/>
  
  <!-- Cabin roof slope -->
  <path d="M 200 35 L 200 20 Q 200 15 205 15 L 255 15 Q 260 15 260 20 L 260 35" fill="#c0392b" stroke="#a93226" stroke-width="2"/>
  
  <!-- Window -->
  <rect x="205" y="20" width="50" height="12" rx="2" fill="#87ceeb" stroke="#5f9ea0" stroke-width="1"/>
  
  <!-- Headlight -->
  <ellipse cx="265" cy="45" rx="6" ry="4" fill="#fff9c4" stroke="#f1c40f" stroke-width="1"/>
  
  <!-- Grille -->
  <rect x="260" y="40" width="8" height="15" fill="#2c3e50"/>
  <line x1="262" y1="42" x2="262" y2="53" stroke="#bdc3c7" stroke-width="0.5"/>
  <line x1="264" y1="42" x2="264" y2="53" stroke="#bdc3c7" stroke-width="0.5"/>
  <line x1="266" y1="42" x2="266" y2="53" stroke="#bdc3c7" stroke-width="0.5"/>
  
  <!-- Trailer door lines -->
  <line x1="70" y1="25" x2="70" y2="75" stroke="#d68910" stroke-width="2"/>
  <line x1="110" y1="25" x2="110" y2="75" stroke="#d68910" stroke-width="2"/>
  
  <!-- Trailer handles -->
  <rect x="32" y="45" width="3" height="8" rx="1" fill="#2c3e50"/>
  
  <!-- Wheels -->
  <circle cx="70" cy="85" r="15" fill="#2c3e50" stroke="#1a252f" stroke-width="2"/>
  <circle cx="150" cy="85" r="15" fill="#2c3e50" stroke="#1a252f" stroke-width="2"/>
  <circle cx="230" cy="85" r="15" fill="#2c3e50" stroke="#1a252f" stroke-width="2"/>
  
  <!-- Wheel rims -->
  <circle cx="70" cy="85" r="8" fill="#95a5a6"/>
  <circle cx="150" cy="85" r="8" fill="#95a5a6"/>
  <circle cx="230" cy="85" r="8" fill="#95a5a6"/>
  
  <!-- Connection between cabin and trailer -->
  <rect x="185" y="50" width="20" height="8" fill="#7f8c8d"/>
</svg>